<?xml version="1.0" encoding="utf-8"?>
<!-- Generator: Adobe Illustrator 16.0.0, SVG Export Plug-In . SVG Version: 6.00 Build 0)  -->
<!DOCTYPE svg PUBLIC "-//W3C//DTD SVG 1.1//EN" "http://www.w3.org/Graphics/SVG/1.1/DTD/svg11.dtd">
<svg version="1.1" id="Layer_1" xmlns="http://www.w3.org/2000/svg" xmlns:xlink="http://www.w3.org/1999/xlink" x="0px" y="0px"
	 width="28px" height="28px" viewBox="0 0 28 28" enable-background="new 0 0 28 28" xml:space="preserve">
<g>
	<path fill="#676767" d="M25.797,4.195c-1.362-1.545-3.253-2.397-5.322-2.397c-2.911,0-4.754,1.738-5.787,3.197
		C14.419,5.373,14.191,5.752,14,6.109c-0.191-0.357-0.42-0.736-0.688-1.115c-1.034-1.458-2.876-3.197-5.787-3.197
		c-2.069,0-3.96,0.852-5.322,2.397c-1.3,1.475-2.016,3.45-2.016,5.562c0,2.299,0.897,4.436,2.824,6.728
		c1.723,2.049,4.199,4.159,7.068,6.604c1.069,0.91,2.174,1.853,3.352,2.882l0.035,0.031c0.152,0.134,0.343,0.2,0.533,0.2
		s0.38-0.066,0.532-0.2l0.036-0.031c1.177-1.029,2.282-1.972,3.352-2.882c2.869-2.445,5.346-4.556,7.067-6.604
		c1.928-2.292,2.825-4.429,2.825-6.728C27.813,7.645,27.096,5.67,25.797,4.195z M16.87,21.856C15.948,22.642,15,23.45,14,24.319
		c-1-0.869-1.948-1.678-2.87-2.463c-5.614-4.784-9.323-7.945-9.323-12.1c0-1.717,0.572-3.312,1.61-4.491
		c1.051-1.192,2.511-1.849,4.108-1.849c2.219,0,3.653,1.367,4.466,2.514c0.729,1.028,1.109,2.065,1.239,2.463
		c0.108,0.333,0.419,0.559,0.77,0.559s0.661-0.226,0.77-0.559c0.13-0.398,0.51-1.435,1.239-2.463
		c0.812-1.147,2.247-2.514,4.466-2.514c1.599,0,3.057,0.656,4.107,1.849c1.039,1.179,1.611,2.774,1.611,4.491
		C26.193,13.911,22.484,17.072,16.87,21.856z"/>
	<path display="none" fill="#010101" d="M14,8c0,0-1.953-6.367-8.47-5.168C-0.986,4.03,0.55,14.704,3.508,15.902
		c2.959,1.198,7.641,8.2,10.225,9.063c2.584,0.861,8.764-8.427,10.599-8.576s3.558-8.165,1.798-10.374
		C24.368,3.805,18.949-1.101,14,8z"/>
</g>
</svg>
