<?xml version="1.0" encoding="utf-8"?>
<!-- Generator: Adobe Illustrator 16.0.0, SVG Export Plug-In . SVG Version: 6.00 Build 0)  -->
<!DOCTYPE svg PUBLIC "-//W3C//DTD SVG 1.1//EN" "http://www.w3.org/Graphics/SVG/1.1/DTD/svg11.dtd">
<svg version="1.1" id="Layer_1" xmlns="http://www.w3.org/2000/svg" xmlns:xlink="http://www.w3.org/1999/xlink" x="0px" y="0px"
	 width="28px" height="28px" viewBox="0 0 28 28" enable-background="new 0 0 28 28" xml:space="preserve">
<path fill="#59C5C7" d="M27.813,9.756c0,2.299-0.897,4.436-2.825,6.728c-1.722,2.049-4.198,4.159-7.067,6.604
	c-1.069,0.91-2.175,1.853-3.352,2.882l-0.036,0.031c-0.152,0.134-0.342,0.2-0.532,0.2s-0.381-0.066-0.533-0.2l-0.035-0.031
	c-1.178-1.029-2.282-1.972-3.352-2.882c-2.869-2.445-5.346-4.556-7.068-6.604c-1.927-2.292-2.824-4.429-2.824-6.728
	c0-2.111,0.716-4.086,2.016-5.562c1.362-1.545,3.253-2.397,5.322-2.397c2.911,0,4.753,1.738,5.787,3.197
	C13.58,5.373,13.809,5.752,14,6.109c0.191-0.357,0.419-0.736,0.688-1.115c1.033-1.458,2.876-3.197,5.787-3.197
	c2.069,0,3.96,0.852,5.322,2.397C27.096,5.67,27.813,7.645,27.813,9.756z"/>
</svg>
