<?xml version="1.0" encoding="utf-8"?>
<!-- Generator: Adobe Illustrator 16.0.0, SVG Export Plug-In . SVG Version: 6.00 Build 0)  -->
<!DOCTYPE svg PUBLIC "-//W3C//DTD SVG 1.1//EN" "http://www.w3.org/Graphics/SVG/1.1/DTD/svg11.dtd">
<svg version="1.1" id="Layer_1" xmlns="http://www.w3.org/2000/svg" xmlns:xlink="http://www.w3.org/1999/xlink" x="0px" y="0px"
	 width="28px" height="28px" viewBox="0 0 28 28" enable-background="new 0 0 28 28" xml:space="preserve">
<g display="none">
	<g display="inline">
		<path d="M-15.024,5.956c-0.009-0.112-0.103-0.198-0.214-0.198h-3.858V4.686c0-3.428-2.789-6.216-6.216-6.216
			c-3.427,0-6.216,2.788-6.216,6.216v1.071h-3.857c-0.112,0-0.206,0.086-0.214,0.198l-1.501,19.719
			c-0.004,0.059,0.016,0.116,0.057,0.161c0.041,0.044,0.097,0.068,0.157,0.068h23.147c0.061,0,0.117-0.024,0.157-0.068
			c0.041-0.045,0.062-0.103,0.058-0.161L-15.024,5.956z M-29.813,4.686c0-2.481,2.019-4.501,4.501-4.501s4.501,2.02,4.501,4.501
			v1.071h-9.002V4.686z M-30.671,11.759c-1.182,0-2.143-0.961-2.143-2.144c0-0.855,0.429-1.626,1.286-1.964v1.964
			c0,0.473,0.385,0.858,0.857,0.858c0.473,0,0.857-0.385,0.857-0.858V7.652c0.857,0.338,1.286,1.115,1.286,1.963
			C-28.527,10.797-29.489,11.759-30.671,11.759z M-19.954,11.759c-1.183,0-2.144-0.961-2.144-2.144c0-0.855,0.429-1.626,1.286-1.964
			v1.964c0,0.473,0.385,0.858,0.857,0.858s0.857-0.385,0.857-0.858V7.652c0.857,0.338,1.286,1.115,1.286,1.963
			C-17.811,10.797-18.771,11.759-19.954,11.759z"/>
	</g>
</g>
<path fill="#58C5C7" d="M24.427,7.921c-0.032-0.308-0.308-0.547-0.616-0.547h-3.773V7.148c0-0.048-0.017-0.09-0.027-0.135V6.209
	c0-3.287-2.67-5.958-5.958-5.958c-3.287,0-5.958,2.671-5.958,5.958v0.939v0.226H4.189c-0.308,0-0.582,0.24-0.616,0.547L1.518,27.064
	c-0.034,0.17,0.035,0.342,0.137,0.479c0.103,0.137,0.274,0.205,0.445,0.205h23.798c0.172,0,0.344-0.068,0.445-0.205
	c0.104-0.139,0.172-0.311,0.137-0.479L24.427,7.921z M9.326,6.209c0-2.603,2.123-4.726,4.726-4.726s4.726,2.123,4.726,4.726v1.165
	H9.328V7.148c0-0.003-0.002-0.006-0.002-0.01V6.209z M8.625,13.094c-0.967,0-1.75-0.784-1.75-1.75c0-0.78,0.514-1.433,1.219-1.659
	v1.542c0,0.341,0.276,0.617,0.617,0.617s0.617-0.276,0.617-0.617V9.743c0.616,0.271,1.047,0.885,1.047,1.601
	C10.375,12.31,9.592,13.094,8.625,13.094z M19.297,13.094c-0.967,0-1.75-0.784-1.75-1.75c0-0.793,0.531-1.456,1.256-1.67v1.553
	c0,0.341,0.276,0.617,0.617,0.617s0.617-0.276,0.617-0.617V9.763c0.595,0.28,1.01,0.88,1.01,1.581
	C21.047,12.31,20.264,13.094,19.297,13.094z"/>
</svg>
