<?xml version="1.0" encoding="utf-8"?>
<!-- Generator: Adobe Illustrator 16.0.0, SVG Export Plug-In . SVG Version: 6.00 Build 0)  -->
<!DOCTYPE svg PUBLIC "-//W3C//DTD SVG 1.1//EN" "http://www.w3.org/Graphics/SVG/1.1/DTD/svg11.dtd">
<svg version="1.1" id="Layer_1" xmlns="http://www.w3.org/2000/svg" xmlns:xlink="http://www.w3.org/1999/xlink" x="0px" y="0px"
	 width="28px" height="28px" viewBox="0 0 28 28" enable-background="new 0 0 28 28" xml:space="preserve">
<polygon display="none" opacity="0.1" fill="#666766" points="4.317,7.997 23.73,7.997 25.891,26.959 2.06,26.959 "/>
<path fill="#666766" d="M24.427,7.921c-0.033-0.308-0.308-0.547-0.616-0.547H20.01V6.209c0-3.287-2.67-5.958-5.958-5.958
	c-3.287,0-5.958,2.671-5.958,5.958v1.165H4.189c-0.308,0-0.582,0.24-0.616,0.547L1.518,27.064c-0.034,0.17,0.035,0.342,0.137,0.479
	c0.103,0.136,0.274,0.205,0.445,0.205h23.799c0.171,0,0.343-0.069,0.445-0.205c0.103-0.138,0.171-0.31,0.137-0.479L24.427,7.921z
	 M19.394,10.833c0.308,0,0.548,0.24,0.548,0.548s-0.24,0.548-0.548,0.548c-0.309,0-0.549-0.24-0.549-0.548
	S19.085,10.833,19.394,10.833z M9.326,6.209c0-2.603,2.123-4.726,4.726-4.726c2.602,0,4.726,2.123,4.726,4.726v1.165H9.326V6.209z
	 M8.709,10.833c0.308,0,0.547,0.24,0.547,0.548s-0.239,0.548-0.547,0.548c-0.309,0-0.548-0.24-0.548-0.548
	S8.401,10.833,8.709,10.833z M2.819,26.481L4.737,8.572h3.355v1.13c-0.685,0.24-1.164,0.89-1.164,1.644
	c0,0.958,0.788,1.747,1.746,1.747c0.959,0,1.747-0.788,1.747-1.747c0-0.754-0.479-1.404-1.165-1.644v-1.13h9.452v1.13
	c-0.685,0.24-1.164,0.89-1.164,1.644c0,0.958,0.787,1.747,1.745,1.747c0.959,0,1.747-0.788,1.747-1.747
	c0-0.754-0.479-1.404-1.164-1.644v-1.13h3.493l1.917,17.909H2.819z"/>
</svg>
