<?xml version="1.0" encoding="utf-8"?>
<!-- Generator: Adobe Illustrator 16.0.0, SVG Export Plug-In . SVG Version: 6.00 Build 0)  -->
<!DOCTYPE svg PUBLIC "-//W3C//DTD SVG 1.1//EN" "http://www.w3.org/Graphics/SVG/1.1/DTD/svg11.dtd">
<svg version="1.1" id="Layer_1" xmlns="http://www.w3.org/2000/svg" xmlns:xlink="http://www.w3.org/1999/xlink" x="0px" y="0px"
	 width="260px" height="50px" viewBox="0 0 260 50" enable-background="new 0 0 260 50" xml:space="preserve">
<g>
	<path fill="#59C5C7" d="M87.425,25.191C87.343,13.956,78.166,4.84,66.895,4.84s-20.449,9.116-20.529,20.352h-0.004
		c0,0.025,0.002,0.05,0.002,0.075c0,0.024-0.002,0.051-0.002,0.075h0.004c0.08,11.234,9.258,20.351,20.529,20.351
		s20.448-9.116,20.53-20.351h0.003c0-0.024-0.001-0.051-0.001-0.075c0-0.025,0.001-0.05,0.001-0.075H87.425z M66.895,37.272
		c-6.654,0-12.071-5.379-12.112-12.006C54.823,18.64,60.24,13.26,66.895,13.26s12.071,5.38,12.112,12.007
		C78.966,31.894,73.549,37.272,66.895,37.272z"/>
	<path fill="#59C5C7" d="M237.351,3.526c-11.913,0-21.572,9.638-21.572,21.527c0,11.888,9.659,21.526,21.572,21.526
		s21.57-9.639,21.57-21.526C258.921,13.164,249.264,3.526,237.351,3.526z M237.351,38.16c-7.252,0-13.151-5.88-13.151-13.106
		c0-7.229,5.899-13.108,13.151-13.108c7.25,0,13.15,5.88,13.15,13.108C250.501,32.28,244.601,38.16,237.351,38.16z"/>
	<path fill="#59C5C7" d="M212.616,4.698h-32.92c-2.324,0-4.211,1.885-4.211,4.209c0,2.325,1.887,4.21,4.211,4.21h4.382v33.042h8.419
		V13.117h7.299v33.042h8.421V13.117h4.399c2.324,0,4.207-1.885,4.207-4.21C216.823,6.583,214.94,4.698,212.616,4.698z"/>
	<path fill="#59C5C7" d="M111.601,9.205c-3.934-2.959-9.071-4.614-14.505-4.689V3.42h-8.42v43.056h8.42v-7.262
		c5.434-0.075,10.571-1.731,14.505-4.688c4.319-3.252,6.797-7.864,6.797-12.661C118.397,17.068,115.92,12.454,111.601,9.205z
		 M97.096,30.793V12.935c7.021,0.142,12.882,4.173,12.882,8.93C109.978,26.622,104.116,30.651,97.096,30.793z"/>
	<path fill="#59C5C7" d="M143.173,9.205c-3.934-2.959-9.072-4.614-14.505-4.689V3.42h-8.42v43.056h8.42v-7.262
		c5.433-0.075,10.571-1.731,14.505-4.688c4.32-3.252,6.796-7.864,6.796-12.661C149.969,17.068,147.493,12.454,143.173,9.205z
		 M128.668,30.793V12.935c7.021,0.142,12.882,4.173,12.882,8.93C141.55,26.622,135.688,30.651,128.668,30.793z"/>
	<path fill="#59C5C7" d="M172.904,13.811l0.121-8.419c-9.283-0.132-13.939-0.198-17.25,3.015c-3.317,3.216-3.384,7.866-3.516,17.134
		l8.231,0.117v0.002l-8.228-0.118c-0.135,9.27-0.201,13.92,3.021,17.229c3.219,3.304,7.877,3.37,17.156,3.503l0.121-8.418
		c-5.141-0.074-10.456-0.15-11.243-0.96c-0.572-0.585-0.688-3.538-0.682-7.071h12.381v-8.42h-12.263
		c0.096-3.49,0.299-6.392,0.879-6.956C162.449,13.661,167.764,13.736,172.904,13.811z"/>
	<path fill="#59C5C7" d="M40.679,4.453c-3.961-0.725-6.167,3.412-7.777,6.433c-1.312,2.462-2.915,5.894-4.765,10.201
		c-1.957,4.554-3.792,9.167-4.893,11.979h-0.68c-1.099-2.812-2.935-7.425-4.892-11.979c-1.851-4.308-3.453-7.739-4.765-10.201
		C11.297,7.865,9.092,3.728,5.13,4.453c-1.513,0.277-4.051,1.46-4.051,6.266v35.229H9.5V23.388
		c2.057,4.729,4.306,10.273,6.243,15.383l0.003-0.002c0.604,1.587,2.134,2.718,3.933,2.718h6.451c1.799,0,3.33-1.131,3.933-2.718
		l0.004,0.002c1.937-5.109,4.186-10.653,6.244-15.383v22.561h8.419V10.719C44.729,5.913,42.192,4.73,40.679,4.453z"/>
</g>
</svg>
