<?xml version="1.0" encoding="UTF-8"?>
<!-- Generator: Adobe Illustrator 16.0.0, SVG Export Plug-In . SVG Version: 6.00 Build 0)  -->
<!DOCTYPE svg PUBLIC "-//W3C//DTD SVG 1.1//EN" "http://www.w3.org/Graphics/SVG/1.1/DTD/svg11.dtd">
<svg version="1.1" id="Layer_1" xmlns="http://www.w3.org/2000/svg" xmlns:xlink="http://www.w3.org/1999/xlink" x="0px" y="0px" width="22px" height="22px" viewBox="0 0 22 22" enable-background="new 0 0 22 22" xml:space="preserve">
<path fill="#FFFFFF" d="M21.584,20.08l-4.8-4.799c1.315-1.652,2.034-3.703,2.034-5.82c0-5.16-4.197-9.356-9.356-9.356  c-5.16,0-9.356,4.196-9.356,9.356c0,5.159,4.197,9.355,9.356,9.355c2.117,0,4.167-0.72,5.82-2.033l4.8,4.8  c0.2,0.199,0.474,0.313,0.75,0.313c0.285,0,0.561-0.116,0.752-0.313C21.997,21.169,21.997,20.494,21.584,20.08z M9.458,16.691  c-3.985,0-7.227-3.243-7.227-7.23c0-3.984,3.242-7.227,7.227-7.227s7.226,3.242,7.226,7.227  C16.684,13.448,13.442,16.691,9.458,16.691z"/>
</svg>