<?xml version="1.0" encoding="utf-8"?>
<!-- Generator: Adobe Illustrator 16.0.0, SVG Export Plug-In . SVG Version: 6.00 Build 0)  -->
<!DOCTYPE svg PUBLIC "-//W3C//DTD SVG 1.1//EN" "http://www.w3.org/Graphics/SVG/1.1/DTD/svg11.dtd">
<svg version="1.1" id="Layer_1" xmlns="http://www.w3.org/2000/svg" xmlns:xlink="http://www.w3.org/1999/xlink" x="0px" y="0px"
	 width="28px" height="28px" viewBox="0 0 28 28" enable-background="new 0 0 28 28" xml:space="preserve">
<path fill="#666766" d="M23.81,18.063c-1.511-1.511-3.31-2.629-5.271-3.307c2.102-1.448,3.482-3.871,3.482-6.609
	c0-4.422-3.598-8.021-8.021-8.021c-4.422,0-8.021,3.598-8.021,8.021c0,2.739,1.381,5.162,3.482,6.609
	c-1.962,0.678-3.76,1.796-5.271,3.307c-2.621,2.619-4.063,6.104-4.063,9.81h2.167c0-6.455,5.251-11.705,11.706-11.705
	c6.455,0,11.705,5.25,11.705,11.705h2.168C27.873,24.167,26.431,20.683,23.81,18.063z M14,14c-3.228,0-5.853-2.625-5.853-5.853
	c0-3.228,2.625-5.853,5.853-5.853s5.853,2.625,5.853,5.853C19.853,11.375,17.228,14,14,14z"/>
</svg>
